<svg xmlns="http://www.w3.org/2000/svg" xmlns:xlink="http://www.w3.org/1999/xlink" version="1.1" x="0px" y="0px" viewBox="0 0 100 125" style="enable-background:new 0 0 100 100;" xml:space="preserve"><path d="M9.6,58.6c-0.7-0.5-1.4-1.2-2.2-1.7c-4.3-2.5-4.7-6.5-4.3-10.8c0.1-1.2,0.1-2.5,0.5-3.7c0.8-2.3,2.1-4.2,4.2-5.6  c4.7-3,9.7-4.7,15.2-4.6c1.2,0,2.6,0.2,3.4-1.1c0.3-0.4,0.7-0.5,1.1-0.3c1.7,0.6,1.7,0.1,1.7-1.6c0-4.5-0.2-9.1,1.6-13.5  c0.6-1.4,3.2-5.2,4.3-6.3c1.4-1.3,2.6-2.6,4.5-3.3c3.6-1.3,7.7,0.3,8.9,4.8c1,3.6,1.7,7.2,1.8,11c0.2,4.8,2.9,8.3,6.8,11  c0.3,0.2,0.7,0.4,1.1,0.5c3.7,0.4,7.2,1.5,11,0.3c5.8-1.9,11.9-2.6,18-3.3c0.7-0.1,1.6-0.2,2.1,0.3c1.6,1.4,3.4,1.4,5.3,1.2  c1.3-0.1,2,0.5,2.4,1.9c0.4,1.7,0.7,3.5,0.7,5.2c-0.1,7.3,0.3,14.6-0.2,21.8C97.6,64,96.6,66.9,96,70c-0.5,2.8-2.8,4.6-3.2,7.4  c-0.1,0.9-1,1.8-2.8,1.7c-4.2-0.2-8.3-0.7-12.4-1.2c-1.7-0.2-3.2-0.7-4.8-1.4c-2.3-1.1-3.2-1-4.9,1c-2.8,3.1-5.2,6.5-8.3,9.3  c-4.2,3.7-8.7,6.6-14.3,7.6c-3.6,0.7-7.1,1.6-10.8,1.6c-2.8,0-5.6-0.3-8.3-1c-4.3-1.1-7.6-3.6-10.4-7c-0.9-1-1.2-2.3-2.7-3  c-1.3-0.7-1.3-2.9-0.8-4.3c0.8-2.4-0.4-3.6-1.9-4.9c-1.7-1.4-3.3-2.9-3.8-5.2c-0.9-4-1.1-7.9,2.4-10.9c0.2-0.2,0.4-0.5,0.5-0.7  C9.6,58.9,9.6,58.8,9.6,58.6z M22.8,44.6c1.1,0,1.8-0.7,2.6-1.3c0.6-0.2,1.1-0.8,1.9-0.7c0.4-0.2,0.8-0.3,1.2-0.5  c4.7-2.1,9.5-4.1,13.8-6.9c3.5-0.3,6.1-2.8,9.6-3.5c-1.2-2.2-2.2-4.1-2.7-6.1c-0.5-2-0.8-4.1-0.7-6.2c0-0.7,0.1-1.6-0.9-1.6  c-0.7,0-1.5,0.3-1.4,1.3c0.1,1.1-0.8,1.4-1.4,1.8c-2.9,1.9-5.7,3.7-8.6,5.6c-0.8,0.5-1.6,1-1.8,2c-0.1,0.3,0,0.6,0.2,0.9  c0.2,0.3,0.6,0.2,0.8,0.1c1.1-0.6,2.1-1.3,3.2-2c0.6-0.4,1-0.2,1.3,0.3c0.3,0.5,0.3,1-0.1,1.4c-0.6,0.6-1.4,0.8-2.2,1  c-2.8,1-2.8,1.1-2.5,4.4c3.8-0.1,7.1-3,11.6-2.4c-1.1,1.5-2.1,2-3.4,2c-0.8,0-0.7,0.5-0.5,1c-1.9,0.2-3.9-0.1-5.7,0.3  c-8.9,2.3-17.2,5.9-25.4,10c-1.3,0.6-2.1,2.1-3.7,2.1c-1.4,0-1.6,1-1.6,2.1c0,1.7,0.5,3.1,1.8,4.1c1.2,1,2.5,1.8,3.9,2.6  c1.3,0.7,2.5,0.7,3.8-0.1c1.4-0.8,2.8-1.9,4.5-1.9c-0.1,0.6-0.6,0.9-1,1c-1.6,0.5-1.7,1.9-1.3,2.8c0.8,1.9-0.1,2-1.5,2.4  c-2.2,0.7-3.6,2.4-4.3,4.8c1.1,0.1,1.7-0.4,2.3-0.8c5.6-3.6,11.5-6.5,17.2-9.9c3.5-2,7.3-3.3,10.7-5.6l0,0c-0.3,2-2.9,1.4-3.5,3.4  c3.4-0.5,5.9-2.6,8.9-3.7c3.1-1.2,6.1-2.7,9.2-3.9c2.9-1.1,5.6-2.9,9-2.6c-2.9,1.7-6.2,2.6-9.2,4c-2.9,1.4-6,2.5-9.4,3.9  c1.1,0.4,1.6,0.1,2,0c4.7-1.5,9.3-3.1,13.8-4.9c0.8-0.3,1.5-0.6,2.3-0.9c0.4-0.1,0.9-0.1,1,0.4c0.1,0.4-0.2,0.8-0.6,1  c-0.7,0.3-1.3,0.6-2,0.8c-3.4,1-6.6,2.5-9.8,4c-0.5,0.2-1.2,0.2-1.1,1.1c1.2,0.3,2.1-0.4,3-0.7c2.8-0.9,5.5-2,8.2-3.1  c0.6-0.2,1.2-0.7,1.6,0.2c0.3,0.8-0.4,1.1-1,1.3c-1.1,0.4-2.1,0.9-3.2,1.2c-1,0.2-1.7,0.7-2.5,1.1c-3.8,2.3-7.8,4.4-11.8,6.4  c-1.3,0.6-2.6,1.1-3.7,2.3c1.1,0.3,1.9-0.3,2.8-0.6c5.9-2.7,12-4.8,18-7.1c1.7-0.6,3.4-1,5.1-1.3c0.4-0.1,0.8,0.1,1,0.5  c0.2,0.5-0.2,0.8-0.5,1c-2,1.1-4.1,2-6.3,2.6c-0.9,0.2-0.5-0.8-0.8-0.8c-0.6-0.1-1.2,0-1.8,0.3c-5.4,2.2-10.8,4.3-16.2,6.6  c-5.5,2.3-10.6,5.4-15.8,8.1c-2,1-4,2.4-6.3,2.5c-1.2,0-1.6,0-1.8,1.5c-0.2,1.3-2.3,1.5-4.7,0.5C27.6,66.9,40,61.2,51.7,54.3  c-2.5,0.3-4.8,1.3-7,2.4C35.9,61,26.9,65.1,18.3,70c-0.7,0.4-1.5,0.7-2.2,1.1c-0.5,0.2-1,0.4-1.3-0.3c-0.2-0.5,0.3-0.8,0.6-1  c2.5-1.3,4.9-2.7,7.4-4c5.9-3,11.9-5.9,17.8-9c2.7-1.4,5.6-2.6,8.2-4.6c-1.5-0.4-2.5,0.2-3.5,0.6c-6.5,2.8-13.1,5.1-19.4,8.3  c-1.8,0.9-3.8,0.7-5.5,1.3c-3.2,1.1-6.4,2.3-8.3,5.6c-0.4,0.7-1.6,1.1-1.6,2.3c0,1.2,0.4,2.2,1.2,3.1c2.6,3.1,6.5,3.8,9.9,1.9  c1.1-0.6,2.2-1.2,3.3-1.8c7.8-4.1,16.2-7.1,23.9-11.3c0.9-0.5,1.8-1,2.9-1c2,0.1,3.9-0.7,5.7-1.3c2.5-0.8,4.9-1.8,7.3-2.6  c1-0.3,2-0.6,3-0.8c0.4-0.1,0.8,0.1,1,0.5c0.2,0.5-0.2,0.8-0.5,1c-0.9,0.4-1.9,0.9-2.9,1.1c-2.9,0.8-5.8,1.6-8.4,3.3  c-0.7,0.5-1.5,0.8-2.4,0.5l0.1,0.1c0.1-0.5,1-0.4,0.7-1.3c-4.5,1.7-8.9,3.3-13.3,5.3c-6.1,2.9-11.8,6.6-18.2,8.9  c-4.2,1.5-5.5,4.7-6.1,8.4c-0.4,2.6,0.9,3.5,3.2,2.3c3.8-1.9,7.7-3.8,11.5-5.7c6.3-3.1,13.1-5.3,19.3-8.7c0.5-0.2,1-0.6,1.4-0.6  c2.4,0.3,4.4-0.9,6.6-1.5c1.8-0.5,3.6-1,5.4-1.4c0.6-0.1,1.4,0.1,1.1,1c-0.3,1.1-4.6,3.2-5.3,2.5c-0.9-1-1.7-0.4-2.4-0.3  c-2.1,0.6-4.2,1.2-6.2,2c-10,3.9-19.7,8.3-29.3,13.1c-1,0.5-2,0.9-2.6,2.1c3,1.9,6,3.1,9.3,3.8c2.1,0.4,4,0,6-1  c6-3.1,11.9-6.5,18-9.4c3.4-1.6,7.2-2.9,9.6-6.3c-0.6-0.4-1.1,0-1.6,0.1c-2.7,1-5.4,2.1-8.2,3.1c-8.3,3.1-16.4,6.6-24.2,10.7  c-0.9,0.5-2.3,1.5-2.7,0.5c-0.7-1.4,1.2-1.6,2.1-2c8.8-3.8,17.1-8.6,26.3-11.2c4.1-1.2,7.9-3.1,12.2-3.9c2-0.3,2.9-1.6,2.9-3.7  c0-1.1,0.2-2.1,0.5-3.1c0.7-2.6,0.7-2.6-1.7-4.1c0-0.7,1.5-0.9,0.7-2.1C59.4,64.9,49.6,70.2,39.5,75c0.3-0.5,0.7-0.9,1.1-1.1  c9.1-5.1,18.4-9.6,28.1-13.5c1.6-0.6,2.2-1.5,2.2-3.2c-0.1-3.7,0-7.5,0.1-11.2c0-3,0.5-6.3-1.7-9.2c-0.4,0.4-0.6,0.8-0.9,1  c-2,1.7-5,1.4-7,3.3c-0.7,0.6-1.4-0.6-2.2-0.7c-0.6,0-1.2,0.3-1.8,0.5c-3.9,1.3-7.9,2.7-11.8,4c0.9-1.5,2.5-1.9,3.9-2.4  c3.6-1.3,7.2-2.7,10.9-3.7c2-0.5,4-1.1,6.4-2.5c-1.6,0-2.7,0.2-3.5,0c-2.7-1-5,0-7.4,1.1c-1.3,0.6-2.8,1.5-4.1,1.3  c-2.9-0.5-5.2,0.8-7.6,1.7c-4.3,1.6-8.5,3.2-12.7,4.8c0.1-0.2,0.2-0.6,0.5-0.7c4.2-1.8,8.3-3.8,12.5-5.4c3.8-1.4,7.5-2.8,11.7-3.9  c-1.3-1.2-2.3-3-3.7-2.4c-2.1,1-4.4,1.2-6.4,2.4c-2.7,1.7-5.6,3.1-8.3,4.8c-3,2-6.6,3-9.4,5.3c-0.6,0.1-1.3,0.3-1.9,0.4  c0.4-1.7,2.7-1.2,3.4-3.4c-4.7,3-9.8,4.4-14.2,7.1c-1.4,0.9-2.9,1.6-4.5,2.1c-0.5,0.1-1,0.3-1.3-0.2c-0.3-0.6,0.1-0.9,0.6-1.2  c2.2-1.3,4.5-2.6,6.7-3.9c0.3-0.2,0.7-0.4,0.9-0.3C20.2,46.9,21.5,45.4,22.8,44.6L22.8,44.6z M19.2,38.9c-0.4,1.1-1.9,1.1-2.3,2.3  c1,0,1.8-0.5,2.7-0.9c2.9-1.3,5.9-2.6,8.9-3.6c1-0.3,3.1-0.2,2.7-1.2c-0.5-1.5-2.3-0.1-3.5-0.1c-0.4,0-0.7,0.4-1.1,0.5  c-2.4,0.6-4.4,2.3-6.9,2.6c-1.8-0.6-3.2,0.6-4.7,1.1c-1.2,0.4-2.3,1.4-4.1,1c3.7-2.5,8-3.2,11.4-5.6c-5,0.4-9.6,1.7-13.4,5.1  c-1.7,1.5-2.9,3.2-3,6.1C10.6,43.2,14.6,40.5,19.2,38.9z M94.8,33.7c-3.9-0.3-7.7-0.3-11.5,0.2c-2.6,0.3-5.1,0.8-7.7,0.8  c-2.5,0.1-2.9,0.8-2.6,3.1c0.2,1.9,0.5,3.7,0.8,5.5c1.5,7.7,2.3,15.4,1.4,23.2c-0.2,2,0.1,4.2-0.8,6.1c-0.9,2.1-0.9,2.1,1.2,2.7  c1.1,0.3,2.3,0.9,3.3,0.7c2.6-0.6,5.2-0.3,7.8-0.5c4.2-0.3,5.4-1.2,6-5.4c0.7-4.7,2.1-9.3,2.5-14.1c0.4-5.1,1.2-10.1,0.3-15.2  C95.1,38.7,95,36.3,94.8,33.7z M35.2,23c3.2-1.8,6-3.8,9-4.9c-0.3-0.9-1.3-0.1-1.4-0.9c0.9-0.9,2.1-0.8,3.2-1.3  c0.5-0.2,1-0.3,1.2-0.8c0.4-0.8-0.6-3.9-1.5-4.6c-1-0.8-1.7,0.1-2.4,0.6c-0.4,0.3-1,0.2-1.4,0.5c-2.5,1.4-5,2.7-6,5.9  c2.5-0.5,4.1-2.1,6.1-3.1c-0.7-0.8-1.4,0.6-2-0.3c2.2-1.6,3.4-1.9,5.7-1.7c0,0.7-0.5,1.1-1,1.4c-2.4,1.5-4.6,3.2-7.1,4.5  C35.8,19.3,35.1,20.6,35.2,23z M44.4,90.7c3.4-0.4,9.9-4.1,11.8-6.6C52.5,86.4,48.1,87.4,44.4,90.7z M43.1,8.9  C39.4,8.4,38.6,9,37.8,12C39.7,10.9,41.4,9.9,43.1,8.9z M37.7,93.1c3,0.3,3,0.3,4-2.7C40.4,92,38.8,91.9,37.7,93.1z M33.9,18.5  c0.1-0.4-0.1-0.7-0.5-0.6c-0.5,0.1-0.9,0.5-1,1.1c-0.1,0.3,0,0.7,0.3,0.7C33.5,19.7,33.7,19,33.9,18.5z M40.5,21.6  c0.9-0.2,1.9-0.4,2.7-1.4C41.9,20.1,41.1,20.7,40.5,21.6z M16.7,80.4c-1,0.9-0.9,1.7-0.5,2.6c0,0,0.1-0.1,0.4-0.2  C16.4,82.1,17.2,81.5,16.7,80.4z M34.4,65.4c-1-0.3-1.6-0.1-2,0.8C33.3,66.6,33.8,66.1,34.4,65.4z M35.7,25c0.1-0.5-0.3-0.5-0.5-0.5  c-0.4,0-0.9,0-0.9,0.5c-0.1,0.3,0.1,0.6,0.5,0.6C35.2,25.6,35.5,25.4,35.7,25z"/><path d="M28.6,45.4c1-0.1,2.1-0.2,3.1-0.3c-1.8,1.5-4,2.2-6.1,3c-3,1.2-5.9,2.4-8.6,4.2c-1,0.7-2.1,1.3-3.4,1.4  c0.6-1.6,0.5-1.7,6.1-4.5c2.3-1.1,4.3-2.9,6.9-3.4C27.3,45.7,27.9,45.6,28.6,45.4z"/><path d="M22.9,44.6c-0.7-0.2-0.8-0.8-0.2-1.1c2.6-1.2,4.8-3,8.3-4.1c-1.4,1.6-3,1.9-3.7,3.2c-0.8-0.1-1.3,0.5-1.9,0.7  C24.4,43.5,23.3,43.4,22.9,44.6L22.9,44.6z"/><path d="M54.6,63.2c0,1.5-1.4,1.6-2.3,2.1c-4.4,2.5-9,4.8-13.4,7.3c-4.5,2.5-9.2,4.8-13.5,7.8c-0.8,0.6-1.8,1.1-2.4,2.1  c0.5,0.2,0.9,0.4,1.6,0.6c-1.2,1.2-2.8,1.4-4.1,2c-0.4,0.2-0.9,0.1-1.1-0.3c-0.4-0.5,0-1,0.4-1.3c0.9-0.7,1.7-1.5,2.7-2.1  c7.8-5.7,16.5-10.1,25.1-14.4C49.9,65.7,52.1,64.1,54.6,63.2C54.7,63.3,54.6,63.2,54.6,63.2z"/><path d="M29.1,50.8c2.4-0.2,4.4-1.5,6.5-2.5c2.8-1.2,5.6-2.6,8.7-3.2c-1,1.3-2.6,1.7-4,2.3c-4.2,1.7-8.4,3.4-12.4,5.7  c-0.9,0.5-1.8,1.2-3,0.7C25.9,52.2,28.1,52.3,29.1,50.8z"/><path d="M19.7,54.6c1.6-2.2,4.2-2.3,6.4-3.5C24.4,53.2,22.1,54,19.7,54.6z"/><path d="M31.7,78.5c1.8-0.8,3.6-1.7,5.4-2.5c-1.4,1.7-3,2.8-5.1,3.1C32,78.8,31.9,78.6,31.7,78.5z"/><path d="M50.3,45.8c-0.6,0.9-1.6,1-2.5,1.2C48.5,46.2,49.3,45.6,50.3,45.8L50.3,45.8z"/><path d="M57.6,42.1c-0.6,1-1.2,1.2-2.2,1.2C55.9,42.2,56.6,42.1,57.6,42.1z"/><path d="M50.4,45.9c0.2-1,1-1.1,1.8-1.3C52,45.7,51.2,45.8,50.4,45.9C50.3,45.8,50.4,45.9,50.4,45.9z"/><path d="M41.9,49.3c0.7,0.3,1.2-0.7,1.9-0.3C43.3,50.2,42.4,48.9,41.9,49.3C41.8,49.4,41.9,49.3,41.9,49.3z"/><path d="M27.2,51.2c-0.1-1,0.7-1.2,1.3-1.4c1.8-0.6,0.1,0.8,0.6,1C28.4,50.7,27.8,50.9,27.2,51.2z"/><path d="M34.8,37.5c0-0.1,0-0.2,0-0.2c0.4-0.2,0.9-0.4,1.3-0.6c0,0,0.1,0.1,0.2,0.2c-0.4,0.2-0.9,0.5-1.3,0.7  C35,37.6,34.9,37.5,34.8,37.5z"/><path d="M40.5,26.2c1.9-1.6,3.5-3.7,6.3-3.9C44.9,24,43.1,25.7,40.5,26.2z"/><text x="0" y="115" fill="#000000" font-size="5px" font-weight="bold" font-family="'Helvetica Neue', Helvetica, Arial-Unicode, Arial, Sans-serif">Created by Alex Muravev</text><text x="0" y="120" fill="#000000" font-size="5px" font-weight="bold" font-family="'Helvetica Neue', Helvetica, Arial-Unicode, Arial, Sans-serif">from the Noun Project</text></svg>