<svg xmlns="http://www.w3.org/2000/svg" xmlns:xlink="http://www.w3.org/1999/xlink" version="1.1" x="0px" y="0px" viewBox="0 0 100 125" style="enable-background:new 0 0 100 100;" xml:space="preserve"><path d="M9.5,42.7C9.4,42.5,9.2,42.2,9,42c-3.5-3-3.3-6.9-2.4-10.9c0.5-2.3,2.1-3.8,3.8-5.2c1.5-1.3,2.7-2.5,1.9-4.9  c-0.5-1.4-0.5-3.6,0.8-4.3c1.5-0.7,1.8-2,2.7-3c2.8-3.4,6.1-5.9,10.4-7c2.7-0.7,5.5-1,8.3-1c3.7,0,7.2,0.9,10.8,1.6  c5.6,1,10.1,3.9,14.3,7.6c3.1,2.8,5.5,6.2,8.3,9.3c1.7,2,2.6,2.1,4.9,1c1.6-0.7,3.1-1.2,4.8-1.4c4.1-0.5,8.2-1,12.4-1.2  c1.8-0.1,2.7,0.8,2.8,1.7c0.4,2.8,2.7,4.6,3.2,7.4c0.6,3.1,1.6,6,1.5,9.2c0.5,7.2,0.1,14.5,0.2,21.8c0,1.7-0.3,3.5-0.7,5.2  c-0.4,1.4-1.1,2-2.4,1.9c-1.9-0.2-3.7-0.2-5.3,1.2c-0.5,0.5-1.4,0.4-2.1,0.3c-6.1-0.7-12.2-1.4-18-3.3c-3.8-1.2-7.3-0.1-11,0.3  c-0.4,0.1-0.8,0.3-1.1,0.5c-3.9,2.7-6.6,6.2-6.8,11c-0.1,3.8-0.8,7.4-1.8,11c-1.2,4.5-5.3,6.1-8.9,4.8c-1.9-0.7-3.1-2-4.5-3.3  c-1.1-1.1-3.7-4.9-4.3-6.3c-1.8-4.4-1.6-9-1.6-13.5c0-1.7,0-2.2-1.7-1.6c-0.4,0.2-0.8,0.1-1.1-0.3c-0.8-1.3-2.2-1.1-3.4-1.1  c-5.5,0.1-10.5-1.6-15.2-4.6c-2.1-1.4-3.4-3.3-4.2-5.6c-0.4-1.2-0.4-2.5-0.5-3.7c-0.4-4.3,0-8.3,4.3-10.8c0.8-0.5,1.5-1.2,2.2-1.7  C9.6,42.9,9.6,42.8,9.5,42.7z M22.8,57.1c-1.3-0.8-2.6-2.3-4.7-1.3c-0.2,0.1-0.6-0.1-0.9-0.3c-2.2-1.3-4.5-2.6-6.7-3.9  C10,51.3,9.6,51,9.9,50.4c0.3-0.5,0.8-0.3,1.3-0.2c1.6,0.5,3.1,1.2,4.5,2.1c4.4,2.7,9.5,4.1,14.2,7.1c-0.7-2.2-3-1.7-3.4-3.4  c0.6,0.1,1.3,0.3,1.9,0.4c2.8,2.3,6.4,3.3,9.4,5.3c2.7,1.7,5.6,3.1,8.3,4.8c2,1.2,4.3,1.4,6.4,2.4c1.4,0.6,2.4-1.2,3.7-2.4  c-4.2-1.1-7.9-2.5-11.7-3.9C40.3,61,36.2,59,32,57.2c-0.3-0.1-0.4-0.5-0.5-0.7c4.2,1.6,8.4,3.2,12.7,4.8c2.4,0.9,4.7,2.2,7.6,1.7  c1.3-0.2,2.8,0.7,4.1,1.3c2.4,1.1,4.7,2.1,7.4,1.1c0.8-0.2,1.9,0,3.5,0c-2.4-1.4-4.4-2-6.4-2.5c-3.7-1-7.3-2.4-10.9-3.7  c-1.4-0.5-3-0.9-3.9-2.4c3.9,1.3,7.9,2.7,11.8,4c0.6,0.2,1.2,0.5,1.8,0.5c0.8-0.1,1.5-1.3,2.2-0.7c2,1.9,5,1.6,7,3.3  c0.3,0.2,0.5,0.6,0.9,1c2.2-2.9,1.7-6.2,1.7-9.2c-0.1-3.7-0.2-7.5-0.1-11.2c0-1.7-0.6-2.6-2.2-3.2c-9.7-3.9-19-8.4-28.1-13.5  c-0.4-0.2-0.8-0.6-1.1-1.1c10.1,4.8,19.9,10.1,30.1,14.5c0.8-1.2-0.7-1.4-0.7-2.1c2.4-1.5,2.4-1.5,1.7-4.1c-0.3-1-0.5-2-0.5-3.1  c0-2.1-0.9-3.4-2.9-3.7c-4.3-0.8-8.1-2.7-12.2-3.9c-9.2-2.6-17.5-7.4-26.3-11.2c-0.9-0.4-2.8-0.6-2.1-2c0.4-1,1.8,0,2.7,0.5  c7.8,4.1,15.9,7.6,24.2,10.7c2.8,1,5.5,2.1,8.2,3.1c0.5,0.1,1,0.5,1.6,0.1c-2.4-3.4-6.2-4.7-9.6-6.3c-6.1-2.9-12-6.3-18-9.4  c-2-1-3.9-1.4-6-1c-3.3,0.7-6.3,1.9-9.3,3.8c0.6,1.2,1.6,1.6,2.6,2.1c9.6,4.8,19.3,9.2,29.3,13.1c2,0.8,4.1,1.4,6.2,2  c0.7,0.1,1.5,0.7,2.4-0.3c0.7-0.7,5,1.4,5.3,2.5c0.3,0.9-0.5,1.1-1.1,1c-1.8-0.4-3.6-0.9-5.4-1.4c-2.2-0.6-4.2-1.8-6.6-1.5  c-0.4,0-0.9-0.4-1.4-0.6c-6.2-3.4-13-5.6-19.3-8.7c-3.8-1.9-7.7-3.8-11.5-5.7c-2.3-1.2-3.6-0.3-3.2,2.3c0.6,3.7,1.9,6.9,6.1,8.4  c6.4,2.3,12.1,6,18.2,8.9c4.4,2,8.8,3.6,13.3,5.3c0.3-0.9-0.6-0.8-0.7-1.3l-0.1,0.1c0.9-0.3,1.7,0,2.4,0.5c2.6,1.7,5.5,2.5,8.4,3.3  c1,0.2,2,0.7,2.9,1.1c0.3,0.2,0.7,0.5,0.5,1c-0.2,0.4-0.6,0.6-1,0.5c-1-0.2-2-0.5-3-0.8c-2.4-0.8-4.8-1.8-7.3-2.6  c-1.8-0.6-3.7-1.4-5.7-1.3c-1.1,0-2-0.5-2.9-1c-7.7-4.2-16.1-7.2-23.9-11.3c-1.1-0.6-2.2-1.2-3.3-1.8c-3.4-1.9-7.3-1.2-9.9,1.9  c-0.8,0.9-1.2,1.9-1.2,3.1c0,1.2,1.2,1.6,1.6,2.3c1.9,3.3,5.1,4.5,8.3,5.6c1.7,0.6,3.7,0.4,5.5,1.3c6.3,3.2,12.9,5.5,19.4,8.3  c1,0.4,2,1,3.5,0.6c-2.6-2-5.5-3.2-8.2-4.6c-5.9-3.1-11.9-6-17.8-9c-2.5-1.3-4.9-2.7-7.4-4c-0.3-0.2-0.8-0.5-0.6-1  c0.3-0.7,0.8-0.5,1.3-0.3c0.7,0.4,1.5,0.7,2.2,1.1c8.6,4.9,17.6,9,26.4,13.3c2.2,1.1,4.5,2.1,7,2.4C40,40.5,27.6,34.8,16.4,27.5  c2.4-1,4.5-0.8,4.7,0.5c0.2,1.5,0.6,1.5,1.8,1.5c2.3,0.1,4.3,1.5,6.3,2.5c5.2,2.7,10.3,5.8,15.8,8.1c5.4,2.3,10.8,4.4,16.2,6.6  c0.6,0.3,1.2,0.4,1.8,0.3c0.3,0-0.1-1,0.8-0.8c2.2,0.6,4.3,1.5,6.3,2.6c0.3,0.2,0.7,0.5,0.5,1c-0.2,0.4-0.6,0.6-1,0.5  c-1.7-0.3-3.4-0.7-5.1-1.3c-6-2.3-12.1-4.4-18-7.1c-0.9-0.3-1.7-0.9-2.8-0.6c1.1,1.2,2.4,1.7,3.7,2.3c4,2,8,4.1,11.8,6.4  c0.8,0.4,1.5,0.9,2.5,1.1c1.1,0.3,2.1,0.8,3.2,1.2c0.6,0.2,1.3,0.5,1,1.3c-0.4,0.9-1,0.4-1.6,0.2c-2.7-1.1-5.4-2.2-8.2-3.1  c-0.9-0.3-1.8-1-3-0.7c-0.1,0.9,0.6,0.9,1.1,1.1c3.2,1.5,6.4,3,9.8,4c0.7,0.2,1.3,0.5,2,0.8c0.4,0.2,0.7,0.6,0.6,1  c-0.1,0.5-0.6,0.5-1,0.4c-0.8-0.3-1.5-0.6-2.3-0.9c-4.5-1.8-9.1-3.4-13.8-4.9c-0.4-0.1-0.9-0.4-2,0c3.4,1.4,6.5,2.5,9.4,3.9  c3,1.4,6.3,2.3,9.2,4c-3.4,0.3-6.1-1.5-9-2.6c-3.1-1.2-6.1-2.7-9.2-3.9c-3-1.1-5.5-3.2-8.9-3.7c0.6,2,3.2,1.4,3.5,3.4l0,0  c-3.4-2.3-7.2-3.6-10.7-5.6c-5.7-3.4-11.6-6.3-17.2-9.9c-0.6-0.4-1.2-0.9-2.3-0.8c0.7,2.4,2.1,4.1,4.3,4.8c1.4,0.4,2.3,0.5,1.5,2.4  c-0.4,0.9-0.3,2.3,1.3,2.8c0.4,0.1,0.9,0.4,1,1c-1.7,0-3.1-1.1-4.5-1.9c-1.3-0.8-2.5-0.8-3.8-0.1c-1.4,0.8-2.7,1.6-3.9,2.6  c-1.3,1-1.8,2.4-1.8,4.1c0,1.1,0.2,2.1,1.6,2.1c1.6,0,2.4,1.5,3.7,2.1c8.2,4.1,16.5,7.7,25.4,10c1.8,0.4,3.8,0.1,5.7,0.3  c-0.2,0.5-0.3,1,0.5,1c1.3,0,2.3,0.5,3.4,2c-4.5,0.6-7.8-2.3-11.6-2.4c-0.3,3.3-0.3,3.4,2.5,4.4c0.8,0.2,1.6,0.4,2.2,1  c0.4,0.4,0.4,0.9,0.1,1.4s-0.7,0.7-1.3,0.3c-1.1-0.7-2.1-1.4-3.2-2c-0.2-0.1-0.6-0.2-0.8,0.1c-0.2,0.3-0.3,0.6-0.2,0.9  c0.2,1,1,1.5,1.8,2c2.9,1.9,5.7,3.7,8.6,5.6c0.6,0.4,1.5,0.7,1.4,1.8c-0.1,1,0.7,1.3,1.4,1.3c1,0,0.9-0.9,0.9-1.6  c-0.1-2.1,0.2-4.2,0.7-6.2s1.5-3.9,2.7-6.1c-3.5-0.7-6.1-3.2-9.6-3.5c-4.3-2.8-9.1-4.8-13.8-6.9c-0.4-0.2-0.8-0.3-1.2-0.5  c-0.8,0.1-1.3-0.5-1.9-0.7C24.6,57.8,23.9,57.1,22.8,57.1L22.8,57.1z M5.9,55.5c0.1,2.9,1.3,4.6,3,6.1c3.8,3.4,8.4,4.7,13.4,5.1  c-3.4-2.4-7.7-3.1-11.4-5.6c1.8-0.4,2.9,0.6,4.1,1c1.5,0.5,2.9,1.7,4.7,1.1c2.5,0.3,4.5,2,6.9,2.6c0.4,0.1,0.7,0.5,1.1,0.5  c1.2,0,3,1.4,3.5-0.1c0.4-1-1.7-0.9-2.7-1.2c-3-1-6-2.3-8.9-3.6c-0.9-0.4-1.7-0.9-2.7-0.9c0.4,1.2,1.9,1.2,2.3,2.3  C14.6,61.2,10.6,58.5,5.9,55.5z M95.5,60.9c0.9-5.1,0.1-10.1-0.3-15.2c-0.4-4.8-1.8-9.4-2.5-14.1c-0.6-4.2-1.8-5.1-6-5.4  c-2.6-0.2-5.2,0.1-7.8-0.5c-1-0.2-2.2,0.4-3.3,0.7c-2.1,0.6-2.1,0.6-1.2,2.7c0.9,1.9,0.6,4.1,0.8,6.1c0.9,7.8,0.1,15.5-1.4,23.2  c-0.3,1.8-0.6,3.6-0.8,5.5c-0.3,2.3,0.1,3,2.6,3.1c2.6,0,5.1,0.5,7.7,0.8c3.8,0.5,7.6,0.5,11.5,0.2C95,65.4,95.1,63,95.5,60.9z   M37.6,83.4c2.5,1.3,4.7,3,7.1,4.5c0.5,0.3,1,0.7,1,1.4c-2.3,0.2-3.5-0.1-5.7-1.7c0.6-0.9,1.3,0.5,2-0.3c-2-1-3.6-2.6-6.1-3.1  c1,3.2,3.5,4.5,6,5.9c0.4,0.3,1,0.2,1.4,0.5c0.7,0.5,1.4,1.4,2.4,0.6c0.9-0.7,1.9-3.8,1.5-4.6C47,86.1,46.5,86,46,85.8  c-1.1-0.5-2.3-0.4-3.2-1.3c0.1-0.8,1.1,0,1.4-0.9c-3-1.1-5.8-3.1-9-4.9C35.1,81.1,35.8,82.4,37.6,83.4z M56.2,17.6  c-1.9-2.5-8.4-6.2-11.8-6.6C48.1,14.3,52.5,15.3,56.2,17.6z M37.8,89.7c0.8,3,1.6,3.6,5.3,3.1C41.4,91.8,39.7,90.8,37.8,89.7z   M41.7,11.3c-1-3-1-3-4-2.7C38.8,9.8,40.4,9.7,41.7,11.3z M32.7,82c-0.3,0-0.4,0.4-0.3,0.7c0.1,0.6,0.5,1,1,1.1  c0.4,0.1,0.6-0.2,0.5-0.6C33.7,82.7,33.5,82,32.7,82z M43.2,81.5c-0.8-1-1.8-1.2-2.7-1.4C41.1,81,41.9,81.6,43.2,81.5z M16.6,18.9  c-0.3-0.1-0.4-0.2-0.4-0.2c-0.4,0.9-0.5,1.7,0.5,2.6C17.2,20.2,16.4,19.6,16.6,18.9z M32.4,35.5c0.4,0.9,1,1.1,2,0.8  C33.8,35.6,33.3,35.1,32.4,35.5z M34.8,76.1c-0.4,0-0.6,0.3-0.5,0.6c0,0.5,0.5,0.5,0.9,0.5c0.2,0,0.6,0,0.5-0.5  C35.5,76.3,35.2,76.1,34.8,76.1z"/><path d="M26.6,55.9c-2.6-0.5-4.6-2.3-6.9-3.4c-5.6-2.8-5.5-2.9-6.1-4.5c1.3,0.1,2.4,0.7,3.4,1.4c2.7,1.8,5.6,3,8.6,4.2  c2.1,0.8,4.3,1.5,6.1,3c-1-0.1-2.1-0.2-3.1-0.3C27.9,56.1,27.3,56,26.6,55.9z"/><path d="M22.9,57.1c0.4,1.2,1.5,1.1,2.5,1.3c0.6,0.2,1.1,0.8,1.9,0.7c0.7,1.3,2.3,1.6,3.7,3.2c-3.5-1.1-5.7-2.9-8.3-4.1  C22.1,57.9,22.2,57.3,22.9,57.1L22.9,57.1z"/><path d="M54.6,38.5c-2.5-0.9-4.7-2.5-7-3.8C39,30.4,30.3,26,22.5,20.3c-1-0.6-1.8-1.4-2.7-2.1c-0.4-0.3-0.8-0.8-0.4-1.3  c0.2-0.4,0.7-0.5,1.1-0.3c1.3,0.6,2.9,0.8,4.1,2c-0.7,0.2-1.1,0.4-1.6,0.6c0.6,1,1.6,1.5,2.4,2.1c4.3,3,9,5.3,13.5,7.8  c4.4,2.5,9,4.8,13.4,7.3C53.2,36.9,54.6,37,54.6,38.5C54.6,38.5,54.7,38.4,54.6,38.5z"/><path d="M24.9,47.9c1.2-0.5,2.1,0.2,3,0.7c4,2.3,8.2,4,12.4,5.7c1.4,0.6,3,1,4,2.3c-3.1-0.6-5.9-2-8.7-3.2c-2.1-1-4.1-2.3-6.5-2.5  C28.1,49.4,25.9,49.5,24.9,47.9z"/><path d="M26.1,50.6c-2.2-1.2-4.8-1.3-6.4-3.5C22.1,47.7,24.4,48.5,26.1,50.6z"/><path d="M32,22.6c2.1,0.3,3.7,1.4,5.1,3.1c-1.8-0.8-3.6-1.7-5.4-2.5C31.9,23.1,32,22.9,32,22.6z"/><path d="M50.3,55.9c-1,0.2-1.8-0.4-2.5-1.2C48.7,54.9,49.7,55,50.3,55.9L50.3,55.9z"/><path d="M55.4,58.4c1,0,1.6,0.2,2.2,1.2C56.6,59.6,55.9,59.5,55.4,58.4z"/><path d="M50.4,55.8c0.8,0.1,1.6,0.2,1.8,1.3C51.4,56.9,50.6,56.8,50.4,55.8C50.4,55.8,50.3,55.9,50.4,55.8z"/><path d="M41.9,52.4c0.5,0.4,1.4-0.9,1.9,0.3C43.1,53.1,42.6,52.1,41.9,52.4C41.9,52.4,41.8,52.3,41.9,52.4z"/><path d="M29.1,50.9c-0.5,0.2,1.2,1.6-0.6,1c-0.6-0.2-1.4-0.4-1.3-1.4C27.8,50.8,28.4,51,29.1,50.9z"/><path d="M77.1,34.2c-0.6-1.2-0.9-2.5,0-3.5c1.2-1.5,3.1-2.1,4.9-2.9c0.2-0.1,0.4,0.1,0.6,0.2c1.2,0.8,2.5,1.6,3.2,2.9  c0.8,1.4,1.4,3.1,0.6,4.7C85.7,37.1,84,37,82.5,37c-0.2,0-0.4,0-0.9,0C79.2,37.8,78.1,36.2,77.1,34.2z M80,31.3  c-1.1,0.7-0.8,2,0.5,2.3c0.5,0.2,1,0.3,1.4,0.6c0.8,0.7,1.7,1,2.5,0.3c0.6-0.6,0.1-1.4-0.2-2c-0.6-1.6-1.1-2-2.1-2  C81.5,30.8,80.6,30.9,80,31.3z"/><path d="M35,64.1c0.4,0.2,0.9,0.5,1.3,0.7c-0.1,0.1-0.2,0.2-0.2,0.2c-0.4-0.2-0.9-0.4-1.3-0.6c0,0,0-0.1,0-0.2  C34.9,64.2,35,64.1,35,64.1z"/><path d="M46.8,79.4c-2.8-0.2-4.4-2.3-6.3-3.9C43.1,76,44.9,77.7,46.8,79.4z"/><text x="0" y="115" fill="#000000" font-size="5px" font-weight="bold" font-family="'Helvetica Neue', Helvetica, Arial-Unicode, Arial, Sans-serif">Created by Alex Muravev</text><text x="0" y="120" fill="#000000" font-size="5px" font-weight="bold" font-family="'Helvetica Neue', Helvetica, Arial-Unicode, Arial, Sans-serif">from the Noun Project</text></svg>